<svg width="125" height="158" viewBox="0 0 125 158" fill="none" xmlns="http://www.w3.org/2000/svg">
<path d="M44.7296 86.5978L12.6284 142.302L22.2347 139.004C25.257 137.967 28.5392 139.651 29.4714 142.727L32.8861 153.969C34.3727 158.862 41.0157 159.455 43.3314 154.897L71.1348 100.186L44.7296 86.5978Z" fill="#61729B"/>
<path d="M32.1208 80.11L4.31745 134.822C2.00663 139.374 6.37314 144.45 11.1812 142.801L12.6285 142.302L44.7249 86.5978L32.1208 80.11Z" fill="#61729B"/>
<path d="M80.2704 86.5978L112.367 142.302L102.76 139.004C99.7382 137.967 96.4559 139.651 95.5237 142.727L92.109 153.969C90.6225 158.862 83.9795 159.455 81.6637 154.897L53.8604 100.186L80.2704 86.5978Z" fill="#47568C"/>
<path d="M92.8789 80.11L120.682 134.822C122.998 139.374 118.632 144.455 113.819 142.801L112.371 142.302L80.2749 86.5978L92.8789 80.11Z" fill="#47568C"/>
<path d="M62.5 125.796C97.0178 125.796 125 97.6357 125 62.8981C125 28.1604 97.0178 0 62.5 0C27.9822 0 0 28.1604 0 62.8981C0 97.6357 27.9822 125.796 62.5 125.796Z" fill="#F5A730"/>
<path d="M62.4999 104.945C85.575 104.945 104.281 86.1201 104.281 62.898C104.281 39.676 85.575 20.8508 62.4999 20.8508C39.4248 20.8508 20.7188 39.676 20.7188 62.898C20.7188 86.1201 39.4248 104.945 62.4999 104.945Z" fill="white"/>
<path d="M36.502 113.783C17.4758 103.918 5.65674 84.4204 5.65674 62.8981C5.65674 31.3577 31.1542 5.69287 62.4999 5.69287C77.6257 5.69287 91.8586 11.603 102.584 22.332C104.517 24.2675 104.526 27.4127 102.603 29.358C100.685 31.3083 97.5596 31.3132 95.6216 29.3778C86.761 20.5151 74.996 15.6319 62.4999 15.6319C36.6001 15.6319 15.5329 36.8333 15.5329 62.8981C15.5329 80.6827 25.3011 96.7985 41.0304 104.945C43.4541 106.199 44.4059 109.196 43.1597 111.64C41.8939 114.099 38.9158 115.032 36.502 113.783Z" fill="#F5A730"/>
<path d="M53.8696 83.0675C52.2899 83.0675 50.7101 82.4602 49.508 81.2456L39.0235 70.6942C36.6146 68.27 36.6146 64.3398 39.0235 61.9105C41.4324 59.4863 45.3378 59.4863 47.7516 61.9105L53.8696 68.0675L77.2477 44.5406C79.6566 42.1163 83.5619 42.1163 85.9758 44.5406C88.3847 46.9649 88.3847 50.8951 85.9758 53.3243L58.2362 81.2406C57.0292 82.4602 55.4494 83.0675 53.8696 83.0675Z" fill="#F5A730"/>
<path d="M41.835 53.6453C46.482 53.6453 50.2491 49.8541 50.2491 45.1775C50.2491 40.501 46.482 36.7098 41.835 36.7098C37.188 36.7098 33.4209 40.501 33.4209 45.1775C33.4209 49.8541 37.188 53.6453 41.835 53.6453Z" fill="white"/>
<path d="M92.5255 76.5452C95.5982 76.5452 98.0892 74.0384 98.0892 70.9461C98.0892 67.8538 95.5982 65.347 92.5255 65.347C89.4528 65.347 86.9619 67.8538 86.9619 70.9461C86.9619 74.0384 89.4528 76.5452 92.5255 76.5452Z" fill="white"/>
</svg>
