<svg width="125" height="150" viewBox="0 0 125 150" fill="none" xmlns="http://www.w3.org/2000/svg">
<path d="M91.7968 127.44C91.7968 129.866 90.1562 131.835 88.1347 131.835H36.8652C34.8437 131.835 33.2031 129.866 33.2031 127.44C33.2031 125.015 34.8437 123.046 36.8652 123.046H88.1347C90.1562 123.046 91.7968 125.015 91.7968 127.44Z" fill="#47568C"/>
<path d="M91.797 127.44C91.797 129.866 90.1564 131.835 88.1349 131.835H62.5V123.046H88.1349C90.1564 123.046 91.797 125.015 91.797 127.44Z" fill="#29376D"/>
<path d="M33.2057 150C30.8258 150 29.0797 147.321 29.6466 144.555L36.9708 108.813C37.4538 106.456 39.4369 105.016 41.4015 105.595C43.3654 106.175 44.5661 108.555 44.0832 110.912L36.7589 146.654C36.3483 148.658 34.8522 150 33.2057 150Z" fill="#47568C"/>
<path d="M91.7941 150C90.1476 150 88.6515 148.658 88.2406 146.654L80.9163 110.912C80.4334 108.555 81.6341 106.174 83.598 105.595C85.5633 105.016 87.5458 106.456 88.0287 108.813L95.3529 144.555C95.9196 147.32 94.1752 150 91.7941 150Z" fill="#29376D"/>
<path d="M7.56836 4.39453H117.432V109.862H7.56836V4.39453Z" fill="#FABE2C"/>
<path d="M62.5 4.39453H117.432V109.862H62.5V4.39453Z" fill="#F5A730"/>
<path d="M125 4.3945C125 6.82026 123.359 8.78899 121.338 8.78899H3.6621C1.64062 8.78899 0 6.82026 0 4.3945C0 1.96873 1.64062 0 3.6621 0H121.338C123.359 0 125 1.96873 125 4.3945Z" fill="#61729B"/>
<path d="M125 4.3945C125 6.82026 123.359 8.78899 121.338 8.78899H62.5V0H121.338C123.359 0 125 1.96873 125 4.3945Z" fill="#47568C"/>
<path d="M125 109.862C125 112.288 123.359 114.257 121.338 114.257H3.6621C1.64062 114.257 0 112.288 0 109.862C0 107.437 1.64062 105.468 3.6621 105.468H121.338C123.359 105.468 125 107.437 125 109.862Z" fill="#61729B"/>
<path d="M125 109.862C125 112.288 123.359 114.257 121.338 114.257H62.5V105.468H121.338C123.359 105.468 125 107.437 125 109.862Z" fill="#47568C"/>
<path d="M99.1204 26.3672H84.4727C82.4503 26.3672 80.8106 28.3348 80.8106 30.7617C80.8106 33.1886 82.4503 35.1562 84.4727 35.1562H90.2801L62.5001 68.492L50.441 54.0212C49.0111 52.305 46.6922 52.305 45.2621 54.0212L23.2894 80.3882C21.8593 82.1044 21.8593 84.8867 23.2894 86.6029C24.7196 88.319 27.0384 88.3188 28.4684 86.6029L47.8517 63.3431L59.9107 77.8139C61.3407 79.5301 63.6595 79.5301 65.0897 77.8139L95.4593 41.3706V48.3397C95.4593 50.7666 97.0989 52.7342 99.1214 52.7342C101.144 52.7342 102.783 50.7666 102.783 48.3397V30.7631C102.784 28.3181 101.116 26.3669 99.1204 26.3672Z" fill="#F0F7FF"/>
<path d="M65.0893 77.8139L95.4589 41.3706V48.3394C95.4589 50.7664 97.0986 52.7339 99.1211 52.7339C101.144 52.7339 102.783 50.7664 102.783 48.3394V30.7629C102.784 28.3178 101.116 26.3667 99.1203 26.3669H84.4726C82.4502 26.3669 80.8105 28.3345 80.8105 30.7614C80.8105 33.1884 82.4502 35.1559 84.4726 35.1559H90.28L62.5 68.4917V79.1009C63.4373 79.1009 64.3743 78.672 65.0893 77.8139Z" fill="#DFE7F4"/>
</svg>
