<svg width="125" height="150" viewBox="0 0 125 150" fill="none" xmlns="http://www.w3.org/2000/svg">
<path d="M102.783 61.5234H97.6592C95.6367 61.5234 93.9971 59.5559 93.9971 57.1289C93.9971 54.7019 95.6367 52.7344 97.6592 52.7344H102.783C110.995 52.7344 117.676 44.8488 117.676 35.1562C117.676 26.8831 112.453 19.4581 105.528 17.8854C103.54 17.434 102.234 15.135 102.61 12.7506C102.987 10.3661 104.903 8.79871 106.889 9.24988C117.128 11.5749 125 22.3632 125 35.1562C125 49.6728 114.978 61.5234 102.783 61.5234Z" fill="#FF9100"/>
<path d="M27.3487 61.5234H22.2168C10.0288 61.5234 0 49.6784 0 35.1562C0 22.3371 7.89967 11.5406 18.1565 9.23901C20.1448 8.79194 22.0577 10.3652 22.4295 12.7508C22.8013 15.1365 21.491 17.4322 19.5032 17.8781C12.5598 19.4364 7.32423 26.8643 7.32423 35.1562C7.32423 44.8488 14.0049 52.7343 22.2168 52.7343H27.3487C29.3711 52.7343 31.0108 54.7019 31.0108 57.1289C31.0108 59.5558 29.3711 61.5234 27.3487 61.5234Z" fill="#FABE2C"/>
<path d="M110.108 4.39453C110.108 35.5869 101.021 76.1602 78.4133 91.4824C75.3737 93.542 73.4865 97.7549 73.4865 102.478V119.238H51.5138V102.48C51.5138 97.7549 49.6266 93.542 46.5871 91.4824C23.9772 76.1572 14.9073 35.5928 14.9415 4.38867C14.9439 1.96289 16.5821 0 18.6036 0H106.446C108.467 0 110.108 1.96875 110.108 4.39453Z" fill="#FABE2C"/>
<path d="M110.108 4.39453C110.108 35.5869 101.021 76.1602 78.4136 91.4824C75.374 93.542 73.4868 97.7549 73.4868 102.478V119.238H62.5005V0H106.446C108.467 0 110.108 1.96875 110.108 4.39453Z" fill="#F5A730"/>
<path d="M91.797 114.844H33.2031C31.1816 114.844 29.541 116.813 29.541 119.238V145.605C29.541 148.031 31.1816 150 33.2031 150H91.797C93.8185 150 95.4591 148.031 95.4591 145.605V119.238C95.4591 116.813 93.8185 114.844 91.797 114.844Z" fill="#61729B"/>
<path d="M95.4595 119.238V145.605C95.4595 148.031 93.8189 150 91.7974 150H62.5005V114.844H91.7974C93.8189 114.844 95.4595 116.813 95.4595 119.238Z" fill="#47568C"/>
<path d="M73.4859 57.1289C73.4859 59.5547 71.8453 61.5234 69.8238 61.5234H55.1753C53.1538 61.5234 51.5132 59.5547 51.5132 57.1289C51.5132 54.7031 53.1538 52.7344 55.1753 52.7344H58.8374V35.1563H55.1753C53.1538 35.1563 51.5132 33.1875 51.5132 30.7617C51.5132 28.3359 53.1538 26.3672 55.1753 26.3672H62.4995C64.521 26.3672 66.1616 28.3359 66.1616 30.7617V52.7344H69.8238C71.8453 52.7344 73.4859 54.7031 73.4859 57.1289Z" fill="white"/>
<path d="M73.4868 57.1289C73.4868 59.5547 71.8462 61.5234 69.8247 61.5234H62.5005V26.3672C64.522 26.3672 66.1626 28.3359 66.1626 30.7617V52.7344H69.8247C71.8462 52.7344 73.4868 54.7031 73.4868 57.1289Z" fill="white"/>
</svg>
