<svg width="22" height="22" viewBox="0 0 22 22" fill="none" xmlns="http://www.w3.org/2000/svg">
<path d="M21.9325 6.46548C21.8795 5.29389 21.6915 4.49354 21.4216 3.79443C21.142 3.07122 20.766 2.45891 20.1538 1.84659C19.5416 1.23428 18.9294 0.858207 18.2064 0.578567C17.5075 0.308569 16.7073 0.120535 15.5359 0.0674995C14.3646 0.0144642 13.9886 0 11 0C8.01139 0 7.64023 0.0144642 6.46407 0.0674995C5.29273 0.120535 4.49255 0.308569 3.7936 0.578567C3.07055 0.858207 2.45837 1.23428 1.84619 1.84659C1.23401 2.45891 0.858019 3.07122 0.57844 3.79443C0.308501 4.49354 0.120508 5.29389 0.0674847 6.46548C0.0144611 7.63708 0 8.01315 0 11.0024C0 13.9917 0.0144611 14.3629 0.0674847 15.5393C0.120508 16.7109 0.308501 17.5113 0.57844 18.2104C0.858019 18.9336 1.23401 19.5459 1.84619 20.1582C2.45837 20.7705 3.07055 21.1466 3.7936 21.4263C4.49255 21.6963 5.29273 21.8843 6.46407 21.9373C7.51972 21.9855 9.85276 22 9.85276 22L9.86722 14.1411H7.8234C7.5631 14.1411 7.34619 13.9242 7.34137 13.6638L7.33655 11.1278C7.33655 10.8578 7.55346 10.6456 7.81858 10.6456H9.85758V8.19636C9.85758 5.36139 11.5929 3.81372 14.1284 3.81372H16.206C16.4759 3.81372 16.688 4.03068 16.688 4.29586V6.43173C16.688 6.70173 16.4711 6.91387 16.206 6.91387H14.9286C13.55 6.91387 13.28 7.56476 13.28 8.52904V10.6456H16.3024C16.5916 10.6456 16.8133 10.8963 16.7796 11.1856L16.4759 13.7217C16.447 13.9627 16.2397 14.146 15.9987 14.146H13.2848L13.2704 21.9952C13.092 21.9952 14.6249 21.9807 15.5359 21.9373C16.7073 21.8843 17.5075 21.6963 18.2064 21.4263C18.9294 21.1466 19.5416 20.7705 20.1538 20.1582C20.766 19.5459 21.142 18.9336 21.4216 18.2104C21.6915 17.5113 21.8795 16.7109 21.9325 15.5393C21.9855 14.3677 22 13.9917 22 11.0024C21.9952 8.01315 21.9855 7.6419 21.9325 6.46548Z" fill="#F5A730"/>
</svg>
