<svg width="30" height="30" viewBox="0 0 30 30" fill="none" xmlns="http://www.w3.org/2000/svg">
<path d="M27.3885 2.3667C25.7961 0.831518 23.6305 0 21.3375 0C19.0445 0 16.879 0.831518 15.2866 2.3667L0.382165 16.3752C0.127368 16.6311 0 16.887 0 17.2068C0 17.5266 0.127368 17.8465 0.382165 18.0384C0.891698 18.4862 1.71974 18.4862 2.16562 18.0384L17.07 4.09384C18.2165 3.00644 19.7452 2.43075 21.3376 2.43075C22.93 2.43075 24.4585 3.00638 25.605 4.09378C26.7515 5.18118 27.3885 6.58845 27.3885 8.12364C27.3885 9.65882 26.7515 11.0661 25.605 12.1535L10.7006 26.162C10.6369 26.226 10.5732 26.29 10.5095 26.3539C10.4458 26.4179 10.3822 26.4179 10.3185 26.4819C9.55412 27.2494 8.47134 27.6332 7.32485 27.6332C6.17835 27.6332 5.15922 27.2494 4.33124 26.4819C2.67521 24.9467 2.67521 22.452 4.33124 20.9168L17.7707 8.25155C17.7707 8.25155 17.7707 8.18756 17.8344 8.18756C17.8344 8.18756 17.8982 8.18756 17.8982 8.12358C18.7899 7.292 20.3822 7.292 21.2739 8.12358C22.2293 9.01908 22.2293 10.4264 21.2739 11.3219L7.83438 24.0512C7.57958 24.307 7.45221 24.5629 7.45221 24.8827C7.45221 25.2026 7.57958 25.5224 7.83438 25.7143C8.08918 25.9702 8.40763 26.0981 8.72608 26.0981C9.04453 26.0981 9.36304 25.9702 9.61777 25.7143L23.0573 13.0491C24.9681 11.258 24.9681 8.3156 23.0573 6.46054C22.1018 5.56504 20.8916 5.11726 19.5541 5.11726C18.2165 5.11726 17.0063 5.62897 16.0509 6.46054C16.0509 6.46054 16.0509 6.52453 15.9872 6.52453C15.9872 6.52453 15.9235 6.52453 15.9235 6.58851L2.61144 19.1898C1.33758 20.4051 0.636961 22.0043 0.636961 23.6674C0.636961 25.3945 1.33758 26.9936 2.6115 28.145C3.88536 29.3604 5.6051 30 7.38856 30C9.17202 30 10.8918 29.3603 12.1656 28.145C12.2293 28.081 12.293 28.0171 12.3567 27.9531C12.4204 27.8891 12.4841 27.8891 12.5478 27.8252L27.4522 13.8166C29.0446 12.2815 30 10.2346 30 8.05971C30 5.88485 29.0445 3.90188 27.3885 2.3667Z" fill="#F5A730"/>
</svg>
