<svg width="41" height="41" viewBox="0 0 41 41" fill="none" xmlns="http://www.w3.org/2000/svg">
<path d="M20.4554 41.0002C16.7183 41.0002 13.058 39.9737 9.81629 37.989L2.15937 40.0796C1.51719 40.2504 0.830558 40.042 0.401797 39.5313C-0.0269647 39.0206 -0.11914 38.3067 0.164352 37.7054C1.79892 34.2348 2.07728 30.3047 0.94836 26.6376C0.680244 25.7836 0.4633 24.8938 0.30786 24.0039C-0.629826 18.61 0.591352 13.1735 3.74092 8.69676C6.89216 4.22007 11.5994 1.23796 16.9933 0.301958C17.0275 0.296833 17.0616 0.291708 17.0958 0.288264C22.2522 -0.582793 27.4873 0.535959 31.8461 3.43102C36.4047 6.4627 39.5099 11.0879 40.591 16.4545C41.6705 21.8228 40.5961 27.2884 37.5662 31.847C34.5361 36.4056 29.9109 39.5125 24.5427 40.5919C23.1813 40.8652 21.8132 41.0002 20.4554 41.0002ZM10.0963 34.4363C10.4294 34.4363 10.759 34.5337 11.0426 34.7216C14.8411 37.2477 19.3947 38.1392 23.8696 37.2442C28.3412 36.3441 32.1961 33.7548 34.7223 29.9545C37.2484 26.1559 38.1451 21.6007 37.2449 17.1291C36.3448 12.6559 33.7572 8.80263 29.9569 6.27651C26.307 3.85121 21.9192 2.92722 17.5962 3.66846C17.5655 3.67359 17.5347 3.67872 17.504 3.68216C13.041 4.4781 9.15017 6.95641 6.5386 10.6645C3.90997 14.393 2.89204 18.9227 3.67429 23.4181C3.80242 24.1593 3.9834 24.9007 4.20892 25.6214C5.24911 29.0015 5.31398 32.5576 4.43099 35.9172L9.64548 34.4944C9.79403 34.4551 9.94603 34.4363 10.0963 34.4363Z" fill="white"/>
<path d="M27.3285 18.7894H13.6645C12.7217 18.7894 11.9565 18.0243 11.9565 17.0814C11.9565 16.1386 12.7217 15.3734 13.6645 15.3734H27.3285C28.273 15.3734 29.0365 16.1386 29.0365 17.0814C29.0365 18.0243 28.2731 18.7894 27.3285 18.7894Z" fill="white"/>
<path d="M27.3285 25.6214H13.6645C12.7217 25.6214 11.9565 24.8579 11.9565 23.9134C11.9565 22.969 12.7217 22.2054 13.6645 22.2054H27.3285C28.273 22.2054 29.0365 22.969 29.0365 23.9134C29.0365 24.8579 28.2731 25.6214 27.3285 25.6214Z" fill="white"/>
</svg>
