<svg width="15" height="30" viewBox="0 0 15 30" fill="none" xmlns="http://www.w3.org/2000/svg">
<path d="M14.2905 20.8608L13.3783 20.0662C12.5675 19.2715 11.2499 19.1722 10.4392 19.8675V9.93376C11.3513 10.5298 12.6689 10.5298 13.3783 9.73507L14.2905 8.84105C15.2026 7.94702 15.2026 6.55624 14.2905 5.66222L9.12153 0.59603C8.31072 -0.198677 6.79043 -0.198677 5.87828 0.59603L0.709423 5.66222C0.304047 6.05954 0 6.65562 0 7.25163C0 7.84765 0.202717 8.44366 0.709423 8.84105L1.62157 9.73507C2.43238 10.5298 3.74989 10.6291 4.56077 9.93376V19.9669C3.64863 19.2715 2.33105 19.3709 1.62162 20.1656L0.709483 21.0596C-0.202659 21.9536 -0.202659 23.3443 0.709483 24.2384L5.8784 29.3046C6.28378 29.7019 6.89194 30 7.50003 30V29.8013C8.10812 29.8013 8.71622 29.6026 9.12159 29.1059L14.2905 24.0397C14.6959 23.6423 15 23.0463 15 22.4503C15 21.8542 14.7973 21.2582 14.2905 20.8608ZM12.8716 22.6489L7.70269 27.7152C7.6013 27.8145 7.49997 27.8145 7.49997 27.8145V28.0132C7.39864 28.0132 7.39864 28.0132 7.29731 27.9139L2.12845 22.8476C2.02706 22.7483 2.02706 22.6489 2.12845 22.5496L3.04059 21.6556C3.14198 21.5562 3.3447 21.5562 3.3447 21.6556L4.86499 23.1457C5.06771 23.3444 5.37176 23.4437 5.57442 23.4437C6.18251 23.4437 6.58795 23.0464 6.58795 22.4503V7.54964C6.58795 7.15232 6.38523 6.75493 5.97985 6.65556C5.57448 6.45687 5.16904 6.55624 4.86499 6.85425L3.34464 8.34435C3.24325 8.44372 3.14192 8.44372 3.04053 8.34435L2.12839 7.45032C2.027 7.35095 2.027 7.35095 2.027 7.25163C2.027 7.25163 2.027 7.15226 2.12839 7.05294L7.29725 1.98675C7.39864 1.88744 7.49997 1.88744 7.70263 1.98675L12.8715 7.05294C12.9729 7.15232 12.9729 7.35095 12.8715 7.35095L11.9594 8.24497C11.858 8.34435 11.7567 8.34435 11.554 8.24497L10.0337 6.75487C9.72969 6.45681 9.32425 6.35755 8.91888 6.55618C8.5135 6.75487 8.31078 7.05288 8.31078 7.45021V22.0529C8.31078 22.4503 8.5135 22.8476 8.91888 22.947C9.32425 23.1456 9.72969 23.0463 10.0337 22.7483L11.554 21.3575C11.6554 21.2582 11.7568 21.2582 11.9594 21.3575L12.8715 22.2516C12.9729 22.351 12.9729 22.351 12.9729 22.4503C12.973 22.4503 12.973 22.5496 12.8716 22.6489Z" fill="#F5A730"/>
</svg>
