<svg width="24" height="23" viewBox="0 0 24 23" fill="none" xmlns="http://www.w3.org/2000/svg">
<path d="M23.0165 6.53602C22.9629 5.35164 22.7728 4.54256 22.4998 3.83583C22.2171 3.10473 21.837 2.48573 21.218 1.86674C20.599 1.24774 19.98 0.86757 19.2489 0.584878C18.5422 0.311935 17.7331 0.12185 16.5487 0.0682358C15.3643 0.0146219 14.9842 0 11.9623 0C8.94041 0 8.56511 0.0146219 7.37586 0.0682358C6.19148 0.12185 5.3824 0.311935 4.67567 0.584878C3.94457 0.86757 3.32558 1.24774 2.70658 1.86674C2.08758 2.48573 1.70741 3.10473 1.42472 3.83583C1.15178 4.54256 0.961693 5.35164 0.90808 6.53602C0.854466 7.72039 0.839844 8.10057 0.839844 11.1224C0.839844 14.1443 0.854466 14.5196 0.90808 15.7089C0.961693 16.8932 1.15178 17.7023 1.42472 18.409C1.70741 19.1401 2.08758 19.7591 2.70658 20.3781C3.32558 20.9971 3.94457 21.3773 4.67567 21.66C5.3824 21.9329 6.19148 22.123 7.37586 22.1766C8.44326 22.2254 10.8023 22.24 10.8023 22.24L14.2531 22.2351C14.2531 22.2351 15.6226 22.2205 16.5438 22.1766C17.7282 22.123 18.5373 21.9329 19.244 21.66C19.9751 21.3773 20.5941 20.9971 21.2131 20.3781C21.8321 19.7591 22.2123 19.1401 22.495 18.409C22.7679 17.7023 22.958 16.8932 23.0116 15.7089C23.0652 14.5245 23.0798 14.1443 23.0798 11.1224C23.0798 8.10057 23.0701 7.72039 23.0165 6.53602ZM11.9428 16.825C8.78932 16.825 6.23535 14.271 6.23535 11.1176C6.23535 7.96409 8.78932 5.41012 11.9428 5.41012C15.0963 5.41012 17.6502 7.96409 17.6502 11.1176C17.6502 14.271 15.0963 16.825 11.9428 16.825ZM17.8744 6.51652C17.1385 6.51652 16.539 5.91702 16.539 5.18105C16.539 4.44508 17.1385 3.84558 17.8744 3.84558C18.6104 3.84558 19.2099 4.44508 19.2099 5.18105C19.2099 5.92189 18.6153 6.51652 17.8744 6.51652Z" fill="#F5A730"/>
<path d="M11.9425 7.41345C9.89543 7.41345 8.23828 9.07061 8.23828 11.1177C8.23828 13.1648 9.89543 14.8219 11.9425 14.8219C13.9896 14.8219 15.6467 13.1648 15.6467 11.1177C15.6467 9.07061 13.9896 7.41345 11.9425 7.41345Z" fill="#F5A730"/>
</svg>
