<svg width="44" height="44" viewBox="0 0 44 44" fill="none" xmlns="http://www.w3.org/2000/svg">
<path d="M42.1935 43.6493H2.45798C1.46099 43.6493 0.651855 42.8419 0.651855 41.8432V18.3631C0.651855 17.8213 0.895687 17.3083 1.31469 16.9652L21.1824 0.709775C21.8471 0.164287 22.8043 0.164287 23.4708 0.709775L43.3386 16.9652C43.7558 17.3083 43.9996 17.8231 43.9996 18.3631V41.8432C43.9996 42.8419 43.1923 43.6493 42.1935 43.6493ZM4.2642 40.037H40.3874V19.2193L22.3257 4.44124L4.2642 19.2193V40.037Z" fill="white"/>
<path d="M38.5802 20.1692V7.52609H6.06934V20.1692" fill="white"/>
<path d="M38.5804 21.9753C37.5816 21.9753 36.7742 21.1662 36.7742 20.1692V9.33226H7.87568V20.1692C7.87568 21.1662 7.06656 21.9753 6.06956 21.9753C5.07256 21.9753 4.26343 21.1662 4.26343 20.1692V7.52613C4.26343 6.52913 5.07256 5.72 6.06956 5.72H38.5804C39.5792 5.72 40.3865 6.52913 40.3865 7.52613V20.1692C40.3865 21.168 39.5792 21.9753 38.5804 21.9753Z" fill="white"/>
<path d="M42.1906 43.6492C41.8781 43.6492 41.5621 43.568 41.2731 43.3982L1.53772 19.9182C0.677961 19.4106 0.394423 18.3035 0.901981 17.4437C1.40954 16.5858 2.51669 16.3022 3.37644 16.8098L43.1119 40.2898C43.9716 40.7973 44.2552 41.9063 43.7495 42.7643C43.4098 43.3332 42.8083 43.6492 42.1906 43.6492Z" fill="white"/>
<path d="M22.3265 31.9092C21.7088 31.9092 21.1074 31.5913 20.7696 31.0224C20.2621 30.1626 20.5457 29.0554 21.4054 28.5479L41.2731 16.8078C42.1383 16.3021 43.2383 16.5839 43.7476 17.4436C44.2533 18.3033 43.9697 19.4105 43.11 19.918L23.2422 31.6581C22.9551 31.8279 22.639 31.9092 22.3265 31.9092Z" fill="white"/>
<path d="M6.06934 7.52609H38.5802V20.1692L22.3247 30.103L6.06934 20.1692V7.52609Z" fill="#6E8393"/>
<path d="M22.3246 31.9092C21.9977 31.9092 21.6726 31.8208 21.3835 31.6455L5.12812 21.7117C4.58991 21.3829 4.26294 20.7977 4.26294 20.1692V7.52613C4.26294 6.52913 5.07207 5.72 6.06907 5.72H38.5799C39.5787 5.72 40.386 6.52913 40.386 7.52613V20.1692C40.386 20.7977 40.0573 21.3812 39.5208 21.7117L23.2654 31.6455C22.9784 31.8225 22.6514 31.9092 22.3246 31.9092ZM7.87528 19.1559L22.3246 27.9863L36.7738 19.1559V9.33226H7.87528V19.1559Z" fill="white"/>
</svg>
