<svg width="44" height="40" viewBox="0 0 44 40" fill="none" xmlns="http://www.w3.org/2000/svg">
<path d="M28.3999 19.596L41.5874 26.9556L21.6741 38.0832L1.76074 26.9556L14.3672 19.9129" fill="#6E8393"/>
<path d="M21.674 39.8439C21.3782 39.8439 21.0825 39.77 20.8148 39.6203L0.901503 28.4927C0.345091 28.1811 0 27.593 0 26.9557C0 26.3183 0.345091 25.7302 0.901503 25.4186L13.508 18.3759L15.2264 21.45L5.37007 26.9557L21.674 36.0672L37.9762 26.9574L27.5406 21.1331L29.2573 18.0589L42.4448 25.4186C43.0011 25.7302 43.348 26.3183 43.348 26.9557C43.348 27.593 43.0029 28.1811 42.4465 28.4927L22.5315 39.6203C22.2656 39.7699 21.9698 39.8439 21.674 39.8439Z" fill="white"/>
<path d="M21.6741 23.9978L1.76074 12.8702L21.6741 1.76031L41.5874 12.8702L21.6741 23.9978Z" fill="#232C3A"/>
<path d="M21.674 25.7584C21.3782 25.7584 21.0825 25.6845 20.8148 25.5348L0.901503 14.4072C0.345091 14.0957 0 13.5076 0 12.8701C0 12.2327 0.345091 11.6447 0.903196 11.3331L20.8165 0.223196C21.35 -0.0743986 21.9997 -0.0743986 22.5332 0.223196L42.4465 11.3331C43.0029 11.6429 43.3497 12.231 43.3497 12.8701C43.3497 13.5093 43.0046 14.0974 42.4465 14.409L22.5333 25.5366C22.2656 25.6844 21.9698 25.7584 21.674 25.7584ZM5.37185 12.8719L21.674 21.9817L37.9762 12.8719L21.674 3.77629L5.37185 12.8719Z" fill="white"/>
</svg>
