<svg width="22" height="22" viewBox="0 0 22 22" fill="none" xmlns="http://www.w3.org/2000/svg">
<rect width="22" height="22" rx="6" fill="#F5A730"/>
<path d="M10.1802 13.5657C8.88921 13.4444 7.72516 13.158 6.72854 12.4559C6.60488 12.3686 6.47721 12.2844 6.36436 12.1868C5.92815 11.8094 5.88419 11.3773 6.22936 10.9319C6.52465 10.5507 7.02034 10.4488 7.53557 10.6676C7.63533 10.71 7.73039 10.763 7.82144 10.8199C9.6788 11.9694 12.2303 12.0011 14.0947 10.8715C14.2794 10.744 14.4768 10.64 14.7057 10.5869C15.1506 10.484 15.5655 10.6312 15.8043 10.9818C16.0771 11.3823 16.0736 11.7732 15.7375 12.0841C15.2219 12.5607 14.6019 12.9055 13.9129 13.1462C13.2615 13.3737 12.548 13.4882 11.8417 13.5643C11.9483 13.6687 11.9985 13.7201 12.0652 13.7804C13.0241 14.6483 13.9872 15.5125 14.943 16.383C15.2687 16.6796 15.3367 17.0474 15.1574 17.3924C14.9614 17.7694 14.5225 18.0175 14.0922 17.9909C13.8196 17.9739 13.607 17.8517 13.4181 17.6803C12.6945 17.0244 11.9572 16.3806 11.2482 15.7123C11.0419 15.518 10.9426 15.5547 10.7605 15.7235C10.0325 16.3985 9.29264 17.0632 8.54841 17.7242C8.21422 18.0209 7.81655 18.0743 7.429 17.9048C7.01703 17.7249 6.75488 17.3462 6.77511 16.9655C6.78907 16.708 6.92965 16.5113 7.12586 16.3349C8.07486 15.4814 9.02125 14.6256 9.96798 13.7707C10.0306 13.7138 10.089 13.6535 10.1802 13.5657Z" fill="#041D33"/>
<path d="M10.9665 10.5926C8.66331 10.5855 6.77473 8.86571 6.78816 6.78789C6.80141 4.68713 8.69121 2.9942 11.0171 3.00001C13.3476 3.00567 15.2182 4.72295 15.2065 6.84554C15.1947 8.91912 13.293 10.5998 10.9665 10.5926ZM13.0596 6.79291C13.0556 5.76123 12.1434 4.9399 11.0003 4.93896C9.8476 4.93786 8.9272 5.77411 8.9361 6.81522C8.94464 7.84298 9.86469 8.65849 11.011 8.65472C12.1537 8.65111 13.0635 7.82444 13.0596 6.79291Z" fill="#041D33"/>
</svg>
