<svg width="45" height="44" viewBox="0 0 45 44" fill="none" xmlns="http://www.w3.org/2000/svg">
<path d="M30.3839 41.2055C33.3609 42.5063 36.8294 41.854 39.13 39.561L42.1762 36.5148L35.4484 29.787L28.8889 33.8424L27.9919 33.1696C21.6192 28.4788 15.9941 22.8537 11.3033 16.481L10.6306 15.584L14.7232 9.00577L7.95807 2.27811L4.98663 5.26818C2.6749 7.59108 2.03389 11.1008 3.37941 14.089L3.65974 14.7057C8.97288 26.5484 18.4983 35.9934 30.3839 41.2055Z" fill="#6E8393"/>
<path d="M33.5681 43.7471C32.2449 43.7471 30.9087 43.4743 29.6361 42.9193C29.6342 42.9193 29.6342 42.9193 29.6342 42.9193C17.2982 37.5072 7.46819 27.7594 1.95515 15.4701L1.67855 14.8627C0.0246751 11.1867 0.822654 6.80244 3.66321 3.95063L6.63287 0.960555C6.98424 0.607327 7.4626 0.336395 7.95976 0.409293C8.45311 0.409293 8.92784 0.603687 9.27725 0.953104L16.0423 7.68085C16.6609 8.2957 16.7711 9.25437 16.3114 9.99258L12.8933 15.4869C17.4402 21.6371 22.8523 27.0474 28.9914 31.5812L34.4688 28.1949C35.2033 27.7407 36.1601 27.8454 36.7713 28.464L43.5009 35.1936C44.2315 35.9242 44.2315 37.1053 43.5009 37.8361L40.4547 40.8823C38.5709 42.7586 36.0948 43.7471 33.5681 43.7471ZM31.1331 39.4938C33.4261 40.4936 36.0443 40.0002 37.8122 38.236L39.5353 36.5149L35.1734 32.153L29.8716 35.431C29.2176 35.8328 28.3803 35.7954 27.7692 35.3356L26.874 34.6647C20.3556 29.8693 14.6071 24.119 9.80049 17.5893L9.13518 16.7073C8.67358 16.0906 8.63625 15.2533 9.04358 14.5993L12.3514 9.28435L7.96713 4.92251L6.31326 6.58756C4.5566 8.34988 4.06503 11.0559 5.08543 13.3228L5.36203 13.9339C10.4994 25.3823 19.6491 34.4554 31.1331 39.4938Z" fill="white"/>
</svg>
