<svg width="82" height="77" viewBox="0 0 82 77" fill="none" xmlns="http://www.w3.org/2000/svg">
<path d="M41.017 15.4315L38.6159 12.4241L41.208 7.68354L36.9243 4.75257L32.777 8.49912L28.9299 7.32673L28.0295 2.02549L22.6544 2L21.6722 7.27575L17.7978 8.42266L13.6505 4.62513L9.28495 7.55611L11.877 12.3731L9.44866 15.355L3.74617 14.5395L2.05452 19.229L7.15675 21.7777L7.12946 25.4988L1.99995 27.9455L3.60974 32.6605L9.33952 31.9214L11.7406 34.9544L9.12124 39.7204L13.4322 42.6259L17.5795 38.9048L21.3993 40.0517L22.327 45.3275L27.7021 45.3529L28.7116 40.0772L32.586 38.9303L36.706 42.7023L41.0716 39.7968L38.5341 35.0053L40.9351 32.0234L46.6376 32.8135L48.3566 28.1239L43.2543 25.5752L43.2816 21.8542L48.4111 19.382L46.7468 14.6669L41.017 15.4315Z" stroke="#F5A730" stroke-width="4" stroke-miterlimit="10" stroke-linecap="round" stroke-linejoin="round"/>
<ellipse cx="25.2051" cy="23.6765" rx="9.4932" ry="8.86765" stroke="#F5A730" stroke-width="4" stroke-miterlimit="10" stroke-linecap="round" stroke-linejoin="round"/>
<path d="M75.8577 27.8548L74.5126 26.096L75.9647 23.3238L73.565 21.6097L71.2416 23.8007L69.0864 23.1151L68.582 20.0149L65.5708 20L65.0206 23.0853L62.8501 23.756L60.5267 21.5352L58.0811 23.2492L59.5332 26.0662L58.1728 27.8101L54.9783 27.3331L54.0306 30.0756L56.8889 31.5661L56.8736 33.7422L54 35.173L54.9018 37.9304L58.1117 37.4981L59.4568 39.2718L57.9894 42.059L60.4045 43.7581L62.7278 41.582L64.8677 42.2528L65.3874 45.338L68.3986 45.3529L68.9641 42.2677L71.1346 41.5969L73.4427 43.8028L75.8883 42.1037L74.4668 39.3016L75.8119 37.5578L79.0065 38.0198L79.9694 35.2773L77.1111 33.7869L77.1264 31.6108L80 30.165L79.0676 27.4076L75.8577 27.8548Z" stroke="#F5A730" stroke-width="4" stroke-miterlimit="10" stroke-linecap="round" stroke-linejoin="round"/>
<ellipse cx="66.9998" cy="32.6765" rx="5.31818" ry="5.18583" stroke="#F5A730" stroke-width="4" stroke-miterlimit="10" stroke-linecap="round" stroke-linejoin="round"/>
<path d="M52.8577 56.8548L51.5126 55.096L52.9647 52.3238L50.565 50.6097L48.2416 52.8007L46.0864 52.1151L45.582 49.0149L42.5708 49L42.0206 52.0853L39.8501 52.756L37.5267 50.5352L35.0811 52.2492L36.5332 55.0662L35.1728 56.8101L31.9783 56.3331L31.0306 59.0756L33.8889 60.5661L33.8736 62.7422L31 64.173L31.9018 66.9304L35.1117 66.4981L36.4568 68.2718L34.9894 71.059L37.4045 72.7581L39.7278 70.582L41.8677 71.2528L42.3874 74.338L45.3986 74.3529L45.9641 71.2677L48.1346 70.5969L50.4427 72.8028L52.8883 71.1037L51.4668 68.3016L52.8119 66.5578L56.0065 67.0198L56.9694 64.2773L54.1111 62.7869L54.1264 60.6108L57 59.165L56.0676 56.4076L52.8577 56.8548Z" stroke="#F5A730" stroke-width="4" stroke-miterlimit="10" stroke-linecap="round" stroke-linejoin="round"/>
<ellipse cx="43.9998" cy="61.6765" rx="5.31818" ry="5.18583" stroke="#F5A730" stroke-width="4" stroke-miterlimit="10" stroke-linecap="round" stroke-linejoin="round"/>
</svg>
