<svg width="58" height="52" viewBox="0 0 58 52" fill="none" xmlns="http://www.w3.org/2000/svg">
<path d="M55.6802 50.3226V43.0538V41.3763V34.1075V33.2861L55.6808 5.03226H53.9409V23.4839H46.4003V14.5376H44.6605V32.4301H37.1217V27.957H35.3818V33.2861L35.3824 41.3763H27.843V32.9892H26.1031V41.3763L26.1026 50.3226H24.3633V45.8495H18.5405V11.7419H35.3824V14.5365H34.2225V16.2139H35.3824V18.9465L35.3731 18.9453C35.2792 19.8819 34.4724 20.5881 33.4975 20.5881C32.4577 20.5881 31.6127 19.7729 31.6127 18.7709C31.6127 18.4209 31.7159 18.0809 31.9125 17.7874L30.4499 16.8788C30.0729 17.444 29.8734 18.0982 29.8734 18.7709C29.8734 20.6977 31.499 22.2655 33.4981 22.2655C35.3737 22.2655 36.9251 20.9074 37.106 19.1075L36.0696 19.0108H37.1217V16.2145H38.2972V14.5371H37.1217V11.7419H37.7016V10.0645H36.7035L18.5405 4.14994V0H8.70394V3.91398H7.89897L0.074814 10.0645H0.00463963V10.1193L0 10.1232L0.00463963 10.1288V11.7419H8.70394L8.70452 45.8495H2.90499V50.3226H0.00463963V52H26.1026H35.3824H37.1222H46.4009H58V50.3226H55.6802ZM10.4444 12.9323L16.5148 18.7849L10.4444 24.6374V12.9323ZM10.4438 5.5914H16.8007V10.0645H10.4438V5.5914ZM16.8007 30.9484L11.5799 25.915L16.8007 20.8811V30.9484ZM16.8007 16.6892L11.6698 11.7419H16.8007V16.6892ZM10.4444 27.1915L16.1871 32.7281L10.4444 38.2647V27.1915ZM16.8007 34.5084V44.5763L11.5794 39.5429L16.8007 34.5084ZM31.267 10.0645H18.5405V5.92017L31.267 10.0645ZM10.4438 1.67742H16.8007V3.91398H10.4438V1.67742ZM2.82727 10.0645L8.51836 5.59084H8.70336V10.0645H2.82727ZM10.4444 40.8206L15.6605 45.8495H10.4444V40.8206ZM4.64485 47.5269H22.6234V50.3226H4.64485V47.5269ZM53.9403 50.3226H46.4009V43.0538H53.9403V50.3226ZM53.9403 41.3763H46.4009V34.1075H53.9403V41.3763ZM46.4009 25.1613H53.9403V32.4301H46.4009V25.1613ZM37.1222 34.1075H44.6611V41.3763H37.1222V34.1075ZM27.8424 50.3226V43.0538H35.3824V50.3226H27.8424ZM37.1222 43.0538H44.6611V50.3226H37.1222V43.0538Z" fill="#F5A730"/>
</svg>
