<svg width="22" height="22" viewBox="0 0 22 22" fill="none" xmlns="http://www.w3.org/2000/svg">
<path d="M21.9373 6.46548C21.8843 5.29389 21.6963 4.49353 21.4263 3.79443C21.1466 3.07122 20.7705 2.45891 20.1582 1.84659C19.5459 1.23428 18.9336 0.858207 18.2104 0.578567C17.5113 0.308569 16.7109 0.120535 15.5393 0.0674994C14.3677 0.0144641 13.9917 0 11.0024 0C8.01315 0 7.6419 0.0144641 6.46548 0.0674994C5.29388 0.120535 4.49353 0.308569 3.79443 0.578567C3.07122 0.858207 2.45891 1.23428 1.84659 1.84659C1.23428 2.45891 0.858207 3.07122 0.578567 3.79443C0.308569 4.49353 0.120535 5.29389 0.0674995 6.46548C0.0144642 7.63708 0 8.01315 0 11.0024C0 13.9917 0.0144642 14.3629 0.0674995 15.5393C0.120535 16.7109 0.308569 17.5113 0.578567 18.2104C0.858207 18.9336 1.23428 19.5459 1.84659 20.1582C2.45891 20.7705 3.07122 21.1466 3.79443 21.4263C4.49353 21.6963 5.29388 21.8843 6.46548 21.9373C7.52137 21.9855 9.85492 22 9.85492 22L13.2685 21.9952C13.2685 21.9952 14.6233 21.9807 15.5345 21.9373C16.7061 21.8843 17.5065 21.6963 18.2056 21.4263C18.9288 21.1466 19.5411 20.7705 20.1534 20.1582C20.7657 19.5459 21.1418 18.9336 21.4214 18.2104C21.6914 17.5113 21.8795 16.7109 21.9325 15.5393C21.9855 14.3677 22 13.9917 22 11.0024C22 8.01315 21.9904 7.63708 21.9373 6.46548ZM17.8199 15.4043L15.8045 15.4333C15.8045 15.4333 15.3754 15.5152 14.8017 15.1247C14.0447 14.6136 13.3408 13.2636 12.7863 13.4372C12.2222 13.6108 12.2463 14.8161 12.2463 14.8161C12.2463 14.8161 12.2463 15.0717 12.1258 15.2163C11.9812 15.3706 11.716 15.3995 11.716 15.3995H10.8144C10.8144 15.3995 8.83278 15.5201 7.08262 13.7024C5.17335 11.7208 3.49551 7.77208 3.49551 7.77208C3.49551 7.77208 3.4039 7.51655 3.50515 7.39601C3.62568 7.25137 3.9439 7.24173 3.9439 7.24173L6.08941 7.23208C6.08941 7.23208 6.29191 7.26101 6.43655 7.37673C6.55709 7.46833 6.61977 7.63226 6.61977 7.63226C6.61977 7.63226 6.96691 8.50975 7.42494 9.3101C8.32654 10.8626 8.74118 11.2001 9.04975 11.0362C9.48849 10.7903 9.35832 8.83761 9.35832 8.83761C9.35832 8.83761 9.36796 8.13368 9.13171 7.81547C8.9485 7.56958 8.611 7.49726 8.46636 7.47797C8.34582 7.45869 8.54832 7.18387 8.80386 7.05851C9.19439 6.86566 9.87903 6.85602 10.6842 6.86566C11.3158 6.8753 11.4894 6.90423 11.7353 6.96691C12.4826 7.15012 12.227 7.83476 12.227 9.49332C12.227 10.0237 12.1354 10.771 12.5115 11.0169C12.6754 11.1181 13.0853 11.0362 14.0833 9.31975C14.5654 8.51457 14.9222 7.5503 14.9222 7.5503C14.9222 7.5503 15.0042 7.37673 15.1247 7.3044C15.2452 7.23208 15.4188 7.25137 15.4188 7.25137L17.6752 7.24173C17.6752 7.24173 18.3599 7.15976 18.4611 7.46833C18.572 7.79619 18.2056 8.5435 17.2847 9.77778C15.7611 11.8028 15.5972 11.6051 16.8556 12.7815C18.0609 13.8952 18.3068 14.4497 18.3454 14.5076C18.8709 15.332 17.8199 15.4043 17.8199 15.4043Z" fill="#F5A730"/>
</svg>
