<svg width="28" height="40" viewBox="0 0 28 40" fill="none" xmlns="http://www.w3.org/2000/svg">
<path d="M9.63697 3.09082H18.8027C19.646 3.09082 20.3303 3.78761 20.3303 4.64619V35.7541C20.3303 36.6126 19.646 37.3094 18.8027 37.3094H9.63697C8.79373 37.3094 8.10938 36.6126 8.10938 35.7541V4.64626C8.10938 3.78768 8.79373 3.09082 9.63697 3.09082Z" fill="#6E8393"/>
<path d="M18.375 39.7536H8.84274C7.09036 39.7536 5.66528 38.292 5.66528 36.4947V3.90555C5.66528 2.10823 7.09036 0.646606 8.84274 0.646606H18.375C20.1274 0.646606 21.5525 2.10823 21.5525 3.90555V36.4947C21.5525 38.292 20.1274 39.7536 18.375 39.7536ZM8.84274 3.90555H8.84118L8.84274 36.4947H18.375V3.90555H8.84274Z" fill="white"/>
<path d="M14.2198 31.1989C20.2943 31.1989 25.2186 26.2746 25.2186 20.2001C25.2186 14.1256 20.2943 9.20123 14.2198 9.20123C8.1453 9.20123 3.22095 14.1256 3.22095 20.2001C3.22095 26.2746 8.1453 31.1989 14.2198 31.1989Z" fill="#232C3A"/>
<path d="M14.2199 33.6431C6.80723 33.6431 0.776855 27.6128 0.776855 20.2001C0.776855 12.7875 6.80723 6.75708 14.2199 6.75708C21.6309 6.75708 27.6629 12.7875 27.6629 20.2001C27.6629 27.6111 21.6309 33.6431 14.2199 33.6431ZM14.2199 10.0641C8.631 10.0641 4.0839 14.6113 4.0839 20.2001C4.0839 25.7889 8.631 30.3361 14.2199 30.3361C19.8088 30.3361 24.3559 25.789 24.3559 20.2001C24.3559 14.6112 19.8088 10.0641 14.2199 10.0641Z" fill="white"/>
<path d="M14.22 15.3117V19.8194L17.8863 22.6443" fill="white"/>
<path d="M17.6288 25.0885C17.2811 25.0885 16.9305 24.9574 16.6493 24.6889L13.4979 21.6833C13.1798 21.3796 12.9978 20.9432 12.9978 20.4843V15.6883C12.9978 14.8058 13.6606 14.0897 14.4773 14.0897C15.294 14.0897 15.9568 14.8058 15.9568 15.6883V19.7633L18.6081 22.2908C19.2206 22.876 19.2783 23.8864 18.7383 24.5482C18.4455 24.9063 18.0371 25.0885 17.6288 25.0885Z" fill="white"/>
</svg>
