<svg width="30" height="30" viewBox="0 0 30 30" fill="none" xmlns="http://www.w3.org/2000/svg">
<path d="M24.8211 8.77509C24.7272 7.71209 23.8815 6.87721 22.8555 6.87721H18.8067C19.1632 6.20802 19.3677 5.43619 19.3677 4.6143C19.3677 2.06998 17.417 0 15.0192 0C12.6214 0 10.6706 2.06998 10.6706 4.6143C10.6706 5.43625 10.8753 6.20809 11.2317 6.87721H7.01351C5.98595 6.87721 5.13921 7.71452 5.04763 8.77994L0 27.744V27.9052C0 29.0603 0.885588 30 1.97414 30H28.0259C29.1144 30 30 29.0603 30 27.9052V27.7399L24.8211 8.77509ZM15.0191 2.32751C16.2074 2.32751 17.1742 3.35333 17.1742 4.61424C17.1742 5.76385 16.3705 6.71761 15.3281 6.87715H14.71C13.6677 6.71755 12.864 5.76379 12.864 4.61424C12.864 3.35333 13.8308 2.32751 15.0191 2.32751ZM2.29834 27.6725L7.21373 9.20485H14.5752C14.7212 9.22058 14.8693 9.22872 15.0191 9.22872C15.169 9.22872 15.3171 9.22064 15.4631 9.20485H22.6547L27.6979 27.6725H2.29834Z" fill="#F5A730"/>
<path d="M14.9264 22.3518L12.1987 17.9438L14.4384 14.9698C14.5259 14.8503 14.5384 14.7308 14.5384 14.6379C14.5384 14.1999 14.013 13.7484 13.6 13.7484C13.4249 13.7484 13.2747 13.8147 13.1496 14.0006L10.4469 17.9041V14.2794C10.4469 13.9076 10.034 13.7483 9.63365 13.7483C9.22074 13.7483 8.82031 13.9076 8.82031 14.2794V22.9094C8.82031 23.2679 9.22068 23.4538 9.63365 23.4538C10.034 23.4538 10.4469 23.2679 10.4469 22.9094V20.307L11.1226 19.4043L13.4749 23.1882C13.6126 23.4272 13.8253 23.52 14.038 23.52C14.5134 23.52 15.014 23.0819 15.014 22.6571C15.014 22.551 14.989 22.4447 14.9264 22.3518Z" fill="#F5A730"/>
<path d="M20.8065 18.3556H18.6794C18.3541 18.3556 18.1789 18.7008 18.1789 19.0327C18.1789 19.3779 18.3541 19.7099 18.6794 19.7099H19.6929V20.4933C19.6929 21.5288 19.1924 22.0201 18.3791 22.0201C17.5533 22.0201 17.0779 21.5289 17.0779 20.4933V16.7889C17.0777 15.7532 17.5532 15.2619 18.3915 15.2619C19.455 15.2619 19.6553 15.9524 19.6928 16.5764C19.7053 16.988 20.0681 17.1207 20.5061 17.1207C21.0441 17.1207 21.3194 16.9614 21.3194 16.2976C21.3194 14.7043 20.0557 13.7484 18.329 13.7484C16.7399 13.7484 15.4512 14.5715 15.4512 16.7888V20.4931C15.4512 22.7103 16.7274 23.5335 18.379 23.5335C20.0307 23.5335 21.3195 22.7104 21.3195 20.4931V18.9132C21.3195 18.6211 21.1318 18.3556 20.8065 18.3556Z" fill="#F5A730"/>
</svg>
