<svg width="29" height="22" viewBox="0 0 29 22" fill="none" xmlns="http://www.w3.org/2000/svg">
<path d="M28.9174 6.46548C28.8475 5.29389 28.5996 4.49353 28.2437 3.79443C27.8751 3.07122 27.3793 2.45891 26.5722 1.84659C25.765 1.23428 24.9579 0.858207 24.0046 0.578567C23.083 0.308569 22.028 0.120535 20.4837 0.0674994C18.9393 0.0144641 18.4435 0 14.5032 0C10.5628 0 10.0734 0.0144641 8.52266 0.0674994C6.97828 0.120535 5.92327 0.308569 5.00173 0.578567C4.04841 0.858207 3.24127 1.23428 2.43412 1.84659C1.62698 2.45891 1.13125 3.07122 0.762635 3.79443C0.406729 4.49353 0.158866 5.29389 0.0889555 6.46548C0.0190454 7.63708 -2.11353e-05 8.01315 -2.11353e-05 11.0024C-2.11353e-05 13.9917 0.0190454 14.3629 0.0889555 15.5393C0.158866 16.7109 0.406729 17.5113 0.762635 18.2104C1.13125 18.9336 1.62698 19.5459 2.43412 20.1582C3.24127 20.7705 4.04841 21.1466 5.00173 21.4263C5.92327 21.6963 6.97828 21.8843 8.52266 21.9373C9.91451 21.9855 12.9906 22 12.9906 22L17.4902 21.9952C17.4902 21.9952 19.2761 21.9807 20.4773 21.9373C22.0217 21.8843 23.0767 21.6963 23.9982 21.4263C24.9515 21.1466 25.7587 20.7705 26.5658 20.1582C27.373 19.5459 27.8687 18.9336 28.2373 18.2104C28.5932 17.5113 28.8411 16.7109 28.911 15.5393C28.9809 14.3677 29 13.9917 29 11.0024C29 8.01315 28.9873 7.63708 28.9174 6.46548Z" fill="#F5A730"/>
<path d="M20 11L12.5 6.66987V15.3301L20 11Z" fill="#041D33"/>
</svg>
